<?xml version="1.0" encoding="UTF-8"?>
<svg width="512px" height="512px" viewBox="0 0 512 512" version="1.1" xmlns="http://www.w3.org/2000/svg" xmlns:xlink="http://www.w3.org/1999/xlink">
    <!-- Generator: Sketch 54.1 (76490) - https://sketchapp.com -->
    <title>Custom Preset</title>
    <desc>Created with Sketch.</desc>
    <g id="Custom-Preset" stroke="none" stroke-width="1" fill="none" fill-rule="evenodd">
        <g id="ghost-(2)" transform="translate(100.000000, 100.000000)" fill="#fff" fill-rule="nonzero">
            <path d="M278.51982,102.115 L262.650045,110.071 L260.314737,92.183 C253.437835,39.65 208.589594,0.026 156,0.026 C103.410406,0.026 58.5621654,39.65 51.6981654,92.196 L49.3499549,110.084 L33.4930827,102.128 C24.6937444,97.682 14.2042105,99.528 7.4047218,106.704 C0.502015038,113.984 -0.801112782,124.358 4.06303759,133.146 L38.2411128,195.091 L27.2225865,279.409 C26.1129925,287.807 29.6998195,295.997 36.6025263,300.833 C43.4794286,305.669 52.381985,306.202 59.7878797,302.211 L85.9665564,288.197 C90.3791278,285.831 95.7077594,285.753 100.210647,288.015 L140.375368,308.256 C145.265323,310.713 150.632662,311.948 155.987098,311.948 C161.341534,311.948 166.721774,310.713 171.598827,308.256 L211.763549,288.015 C216.266436,285.753 221.595068,285.818 226.020541,288.197 L252.186316,302.211 C259.605113,306.176 268.507669,305.669 275.371669,300.833 C282.274376,295.997 285.861203,287.794 284.751609,279.435 L273.72018,195.091 L307.898256,133.159 C312.801113,124.358 311.497985,113.984 304.595278,106.704 C297.808692,99.554 287.33206,97.734 278.51982,102.115 Z M194.706767,97.63 C205.376932,97.63 214.06015,106.379 214.06015,117.13 C214.06015,127.881 205.376932,136.63 194.706767,136.63 C184.036602,136.63 175.353383,127.881 175.353383,117.13 C175.353383,106.379 184.036602,97.63 194.706767,97.63 Z M117.293233,97.63 C127.963398,97.63 136.646617,106.379 136.646617,117.13 C136.646617,127.881 127.963398,136.63 117.293233,136.63 C106.623068,136.63 97.9398496,127.881 97.9398496,117.13 C97.9398496,106.379 106.623068,97.63 117.293233,97.63 Z M220.511278,188.5 C220.511278,206.427 206.034947,221 188.255639,221 C170.476331,221 156,206.427 156,188.5 L101.165414,188.5 C95.8238797,188.5 91.4887218,184.132 91.4887218,178.75 C91.4887218,173.368 95.8238797,169 101.165414,169 L165.676692,169 L210.834586,169 C216.17612,169 220.511278,173.368 220.511278,178.75 L220.511278,188.5 Z" id="Shape"></path>
        </g>
    </g>
</svg>