<?xml version="1.0" encoding="UTF-8"?>
<svg width="512px" height="512px" viewBox="0 0 512 512" version="1.1" xmlns="http://www.w3.org/2000/svg" xmlns:xlink="http://www.w3.org/1999/xlink">
    <!-- Generator: Sketch 54.1 (76490) - https://sketchapp.com -->
    <title>Custom Preset</title>
    <desc>Created with Sketch.</desc>
    <g id="Custom-Preset" stroke="none" stroke-width="1" fill="none" fill-rule="evenodd">
        <path d="M377.881457,113 L134.131842,113 C122.460123,113 113,122.171432 113,133.491265 L113,378.50009 C113,389.820589 122.463448,399 134.131842,399 L377.881457,399 C389.550516,399 399,389.814604 399,378.50009 L399,133.491265 C399,122.174757 389.550516,113 377.881457,113 Z M199.707047,352.401439 L156.494491,352.401439 L156.494491,223.275948 L199.707047,223.275948 L199.707047,352.401439 Z M178.105091,205.635253 L177.814512,205.635253 C163.323441,205.635253 153.929812,195.72508 153.929812,183.31808 C153.929812,170.661065 163.599391,161.019525 178.377717,161.019525 C193.157372,161.019525 202.248453,170.658405 202.535708,183.31808 C202.535708,195.72774 193.160697,205.635253 178.105091,205.635253 Z M355.475587,352.401439 L312.276995,352.401439 L312.276995,283.314816 C312.276995,265.955389 306.0179,254.110258 290.395763,254.110258 C278.44477,254.110258 271.350508,262.101433 268.235257,269.816659 C267.080918,272.572145 266.794993,276.426102 266.794993,280.274738 L266.794993,352.398779 L223.604381,352.398779 C223.604381,352.398779 224.169581,235.384393 223.604381,223.273953 L266.801643,223.273953 L266.801643,241.580245 C272.536099,232.783836 282.783513,220.235871 305.723331,220.235871 C334.156231,220.235871 355.475587,238.680469 355.475587,278.360394 L355.475587,352.401439 Z M266.522367,241.99051 C266.596176,241.869491 266.699242,241.723871 266.801643,241.58224 L266.801643,241.99051 L266.522367,241.99051 Z" id="path" fill="#fff" fill-rule="nonzero"></path>
    </g>
</svg>